<?xml version="1.0"?>
<svg version="1.1" id="圖層_1" xmlns="http://www.w3.org/2000/svg" x="0" y="0" viewBox="0 0 100 100" xml:space="preserve"><path d="M85.889 26.091v25.576c0 6.863-6.067 12.434-12.986 12.434H38.902c-1.068 2.833-2.531 4.585-4.335 6.619.7.213 1.442-.008 2.212-.008h28.297c1.815 7.556 6.647 13.057 14.203 15.244V70.711h3.066c5.609 0 10.156-4.547 10.156-10.156V33.857c-.001-4.133-2.834-7.504-6.612-7.766z" fill="#849b87"/><path d="M14.892 14.045H72.83a7.392 7.392 0 0 1 7.392 7.392v29.952c0 4.394-3.595 7.989-7.989 7.989H35.397c-1.815 6.611-7.12 11.97-13.731 14.158V59.378h-6.24c-4.36 0-7.927-3.567-7.927-7.927V21.437c.001-4.066 3.327-7.392 7.393-7.392z" fill="#f5e6c8" stroke="#333" stroke-width="3" stroke-miterlimit="10"/><metadata xmlns:d="https://loading.io/stock/"><d:name>discussion</d:name><d:tags>thread,interview,talk,chitchat,chat,discussion,conversation</d:tags><d:license>pro</d:license><d:slug>agmd1x</d:slug></metadata></svg>