<!-- icon666.com - MILLIONS vector ICONS FREE --><svg id="Layer_1" viewBox="0 0 24 24" xmlns="http://www.w3.org/2000/svg" data-name="Layer 1"><path d="m20 1.25h-2a1.752 1.752 0 0 0 -1.75 1.75v7.5a.75.75 0 0 0 .75.75l4 .6a.75.75 0 0 0 .75-.75v-8.1a1.752 1.752 0 0 0 -1.75-1.75z" fill="#155fb7" style="fill: rgb(255, 194, 223);"></path><path d="m22.5 10.442-7.991-7.193a3.742 3.742 0 0 0 -5.018 0l-7.991 7.193a.75.75 0 0 0 .752 1.265v8.293a2.887 2.887 0 0 0 3 2.75h13.5a2.887 2.887 0 0 0 3-2.75v-8.295a.766.766 0 0 0 .25.045.75.75 0 0 0 .5-1.308z" fill="#3a8def" style="fill: rgb(243, 165, 184);"></path><path d="m13 15.25h-2a2.752 2.752 0 0 0 -2.75 2.75v4a.75.75 0 0 0 .75.75h6a.75.75 0 0 0 .75-.75v-4a2.752 2.752 0 0 0 -2.75-2.75z" fill="#2675e2" style="fill: rgb(240, 188, 211);"></path><g fill="#282828"><path d="m15 22.75h-6a.75.75 0 0 1 -.75-.75v-4a2.752 2.752 0 0 1 2.75-2.75h2a2.752 2.752 0 0 1 2.75 2.75v4a.75.75 0 0 1 -.75.75zm-5.25-1.5h4.5v-3.25a1.252 1.252 0 0 0 -1.25-1.25h-2a1.252 1.252 0 0 0 -1.25 1.25z" fill="#282828"></path><path d="m22 11.75a.744.744 0 0 1 -.5-.192l-7.995-7.194a2.243 2.243 0 0 0 -3.01 0l-7.995 7.194a.75.75 0 1 1 -1-1.116l7.992-7.193a3.742 3.742 0 0 1 5.017 0l7.991 7.193a.75.75 0 0 1 -.5 1.308z" fill="#282828"></path><path d="m18.75 22.75h-13.5a2.886 2.886 0 0 1 -3-2.75v-9.9a.75.75 0 0 1 1.5 0v9.9a1.394 1.394 0 0 0 1.5 1.25h13.5a1.394 1.394 0 0 0 1.5-1.25v-9.9a.75.75 0 0 1 1.5 0v9.9a2.886 2.886 0 0 1 -3 2.75z" fill="#282828"></path><path d="m21 10.85a.75.75 0 0 1 -.75-.75v-7.1a.25.25 0 0 0 -.25-.25h-2a.25.25 0 0 0 -.25.25v3.5a.75.75 0 0 1 -1.5 0v-3.5a1.752 1.752 0 0 1 1.75-1.75h2a1.752 1.752 0 0 1 1.75 1.75v7.1a.75.75 0 0 1 -.75.75z" fill="#282828"></path></g></svg>