<?xml version="1.0" encoding="UTF-8" standalone="no"?> <svg id="Layer_1" data-name="Layer 1" xmlns="http://www.w3.org/2000/svg" viewBox="0 0 512 512"><defs><style>.cls-1{fill:#e5decf;}.cls-2{fill:#f4607f;}.cls-3{opacity:0.06;}.cls-4{fill:#231f20;}.cls-5{fill:#bfc9d1;}</style></defs><title>calendar-flat</title><path class="cls-1" d="M512,185.6v256a64.11,64.11,0,0,1-64,64H64a64.11,64.11,0,0,1-64-64v-256Z"/><path class="cls-2" d="M325,353.58a50.61,50.61,0,0,0,0-70.22,47.39,47.39,0,0,0-68.35,0l-.68.7-.68-.7a47.43,47.43,0,0,0-68.35,0,50.58,50.58,0,0,0,0,70.22l69,68.82Z"/><path class="cls-2" d="M512,121.6v64H0v-64a64.11,64.11,0,0,1,64-64H448A64.11,64.11,0,0,1,512,121.6Z"/><g class="cls-3"><path class="cls-4" d="M512,121.6v320a64.11,64.11,0,0,1-64,64H256V57.6H448A64.11,64.11,0,0,1,512,121.6Z"/></g><path class="cls-5" d="M121.6,108.8a19.2,19.2,0,0,1-19.2-19.2v-64a19.2,19.2,0,0,1,38.4,0v64A19.2,19.2,0,0,1,121.6,108.8Z"/><path class="cls-5" d="M211.2,108.8A19.2,19.2,0,0,1,192,89.6v-64a19.2,19.2,0,0,1,38.4,0v64A19.2,19.2,0,0,1,211.2,108.8Z"/><path class="cls-5" d="M300.8,108.8a19.2,19.2,0,0,1-19.2-19.2v-64a19.2,19.2,0,1,1,38.4,0v64A19.2,19.2,0,0,1,300.8,108.8Z"/><path class="cls-5" d="M390.4,108.8a19.2,19.2,0,0,1-19.2-19.2v-64a19.2,19.2,0,0,1,38.4,0v64A19.2,19.2,0,0,1,390.4,108.8Z"/></svg>