<?xml version="1.0" encoding="iso-8859-1"?>
<!-- Generator: Adobe Illustrator 19.2.1, SVG Export Plug-In . SVG Version: 6.00 Build 0)  -->
<svg version="1.1" xmlns="http://www.w3.org/2000/svg" xmlns:xlink="http://www.w3.org/1999/xlink" x="0px" y="0px"
	 viewBox="0 0 32 32" style="enable-background:new 0 0 32 32;" xml:space="preserve">
<g id="Layer_29">
	<path style="fill:#95CC29;" d="M24.912,16.095c-2.458,0.431-4.457,2.478-4.839,4.944c-0.266,1.715,0.195,3.321,1.123,4.557
		l4.003,6.003c0.4,0.533,1.2,0.533,1.6,0l4.003-6.003c0.752-1.002,1.197-2.247,1.197-3.597C31.999,18.33,28.704,15.43,24.912,16.095
		z M25.999,24c-1.104,0-2-0.895-2-2s0.896-2,2-2c1.105,0,2,0.895,2,2S27.103,24,25.999,24z"/>
	<path style="fill:#666666;" d="M30.627,0.072l-9.629,3.851L11.37,0.072c-0.237-0.095-0.505-0.095-0.743,0l-9.999,4
		C0.25,4.223,0,4.593,0,5c0,3.613,0,22.329,0,26c0,0.331,0.165,0.642,0.439,0.828c0.274,0.186,0.624,0.223,0.932,0.1l9.629-3.851
		l9.629,3.851c0.237,0.095,0.505,0.095,0.743,0l1.104-0.442l-0.743-1.857l-0.732,0.293L12,26.323V2.477l8,3.2V16h2V5.677l8-3.2
		C30,8.002,30,12,30,16h2c0-4,0-8.627,0-15c0-0.331-0.166-0.642-0.44-0.828C31.286-0.014,30.934-0.051,30.627,0.072z M10,26.323
		l-8,3.2C2,24.162,2,9.989,2,5.677l8-3.2V26.323z"/>
	<rect style="fill:none;" width="32" height="32"/>
</g>
<g id="Layer_1">
</g>
</svg>
